# Blender 3.5.0
# www.blender.org
mtllib right_wheel.mtl
o node0
v 0.000000 0.037385 -0.749068
v 0.000000 0.000000 -0.750000
v -0.200000 0.000000 -0.750000
v -0.200000 0.037385 -0.749068
v -0.200000 0.074676 -0.746273
v 0.000000 0.074676 -0.746273
v -0.200000 0.111782 -0.741623
v 0.000000 0.111782 -0.741623
v 0.000000 0.148610 -0.735129
v -0.200000 0.148610 -0.735129
v -0.200000 0.185068 -0.726808
v 0.000000 0.185068 -0.726808
v 0.000000 0.221067 -0.716680
v -0.200000 0.221067 -0.716680
v 0.000000 0.256515 -0.704769
v -0.200000 0.256515 -0.704769
v -0.200000 0.291326 -0.691107
v 0.000000 0.291326 -0.691107
v 0.000000 0.325413 -0.675727
v -0.200000 0.325413 -0.675727
v 0.000000 0.358691 -0.658666
v -0.200000 0.358691 -0.658666
v 0.000000 0.391077 -0.639968
v -0.200000 0.391077 -0.639968
v -0.200000 0.422490 -0.619679
v 0.000000 0.422490 -0.619679
v 0.000000 0.452854 -0.597849
v -0.200000 0.452854 -0.597849
v 0.000000 0.482091 -0.574533
v -0.200000 0.482091 -0.574533
v 0.000000 0.510130 -0.549789
v -0.200000 0.510130 -0.549789
v -0.200000 0.536900 -0.523678
v 0.000000 0.536900 -0.523678
v 0.000000 0.562336 -0.496264
v -0.200000 0.562336 -0.496264
v 0.000000 0.586374 -0.467617
v -0.200000 0.586374 -0.467617
v -0.200000 0.608954 -0.437808
v 0.000000 0.608954 -0.437808
v 0.000000 0.630020 -0.406910
v -0.200000 0.630020 -0.406910
v 0.000000 0.649519 -0.375000
v -0.200000 0.649519 -0.375000
v 0.000000 0.667404 -0.342158
v -0.200000 0.667404 -0.342158
v 0.000000 0.683630 -0.308465
v -0.200000 0.683630 -0.308465
v 0.000000 0.698155 -0.274006
v -0.200000 0.698156 -0.274006
v 0.000000 0.710946 -0.238865
v -0.200000 0.710946 -0.238865
v 0.000000 0.721968 -0.203130
v -0.200000 0.721968 -0.203130
v 0.000000 0.731196 -0.166891
v -0.200000 0.731196 -0.166891
v 0.000000 0.738606 -0.130236
v -0.200000 0.738606 -0.130236
v -0.200000 0.744180 -0.093258
v 0.000000 0.744180 -0.093258
v 0.000000 0.747903 -0.056048
v -0.200000 0.747903 -0.056048
v 0.000000 0.749767 -0.018698
v -0.200000 0.749767 -0.018698
v 0.000000 0.749767 0.018698
v -0.200000 0.749767 0.018698
v 0.000000 0.747903 0.056048
v -0.200000 0.747903 0.056048
v 0.000000 0.744180 0.093258
v -0.200000 0.744180 0.093258
v 0.000000 0.738606 0.130236
v -0.200000 0.738606 0.130236
v 0.000000 0.731196 0.166891
v -0.200000 0.731196 0.166891
v 0.000000 0.721968 0.203130
v -0.200000 0.721968 0.203130
v -0.200000 0.710946 0.238865
v 0.000000 0.710946 0.238865
v -0.200000 0.698156 0.274006
v 0.000000 0.698155 0.274006
v 0.000000 0.683630 0.308465
v -0.200000 0.683630 0.308465
v 0.000000 0.667404 0.342158
v -0.200000 0.667404 0.342158
v 0.000000 0.649519 0.375000
v -0.200000 0.649519 0.375000
v 0.000000 0.630020 0.406910
v -0.200000 0.630020 0.406910
v 0.000000 0.608954 0.437808
v -0.200000 0.608954 0.437808
v 0.000000 0.586374 0.467617
v -0.200000 0.586374 0.467617
v 0.000000 0.562336 0.496264
v -0.200000 0.562336 0.496264
v -0.200000 0.536900 0.523678
v 0.000000 0.536900 0.523678
v 0.000000 0.510130 0.549789
v -0.200000 0.510130 0.549789
v 0.000000 0.482091 0.574533
v -0.200000 0.482091 0.574533
v 0.000000 0.452854 0.597849
v -0.200000 0.452854 0.597849
v -0.200000 0.422490 0.619679
v 0.000000 0.422490 0.619679
v 0.000000 0.391077 0.639968
v -0.200000 0.391077 0.639968
v -0.200000 0.358691 0.658666
v 0.000000 0.358691 0.658666
v 0.000000 0.325413 0.675727
v -0.200000 0.325413 0.675727
v -0.200000 0.291326 0.691107
v 0.000000 0.291326 0.691107
v 0.000000 0.256515 0.704769
v -0.200000 0.256515 0.704769
v 0.000000 0.221067 0.716680
v -0.200000 0.221067 0.716680
v -0.200000 0.185068 0.726808
v 0.000000 0.185068 0.726808
v 0.000000 0.148610 0.735129
v -0.200000 0.148610 0.735129
v 0.000000 0.111782 0.741623
v -0.200000 0.111782 0.741623
v 0.000000 0.074676 0.746273
v -0.200000 0.074676 0.746273
v 0.000000 0.037385 0.749068
v -0.200000 0.037385 0.749068
v -0.200000 0.000000 0.750000
v 0.000000 0.000000 0.750000
v -0.200000 -0.037384 0.749068
v 0.000000 -0.037384 0.749068
v 0.000000 -0.074676 0.746273
v -0.200000 -0.074676 0.746273
v -0.200000 -0.111781 0.741623
v 0.000000 -0.111782 0.741623
v -0.200000 -0.148609 0.735129
v 0.000000 -0.148609 0.735129
v -0.200000 -0.185068 0.726808
v 0.000000 -0.185068 0.726808
v 0.000000 -0.221066 0.716680
v -0.200000 -0.221066 0.716680
v -0.200000 -0.256515 0.704769
v 0.000000 -0.256515 0.704769
v -0.200000 -0.291326 0.691107
v 0.000000 -0.291326 0.691107
v 0.000000 -0.325413 0.675727
v -0.200000 -0.325412 0.675727
v -0.200000 -0.358690 0.658666
v 0.000000 -0.358690 0.658666
v 0.000000 -0.391076 0.639968
v -0.200000 -0.391076 0.639968
v 0.000000 -0.422490 0.619679
v -0.200000 -0.422490 0.619679
v 0.000000 -0.452853 0.597849
v -0.200000 -0.452853 0.597849
v -0.200000 -0.482090 0.574533
v 0.000000 -0.482090 0.574533
v 0.000000 -0.510129 0.549789
v -0.200000 -0.510129 0.549789
v 0.000000 -0.536900 0.523678
v -0.200000 -0.536900 0.523678
v -0.200000 -0.562336 0.496264
v 0.000000 -0.562336 0.496264
v 0.000000 -0.586373 0.467617
v -0.200000 -0.586373 0.467617
v 0.000000 -0.608953 0.437808
v -0.200000 -0.608953 0.437808
v 0.000000 -0.630019 0.406910
v -0.200000 -0.630019 0.406910
v -0.200000 -0.649519 0.375000
v -0.000000 -0.649519 0.375000
v -0.000000 -0.667404 0.342158
v -0.200000 -0.667404 0.342158
v -0.000000 -0.683629 0.308465
v -0.200000 -0.683629 0.308465
v -0.000000 -0.698155 0.274006
v -0.200000 -0.698155 0.274006
v -0.000000 -0.710945 0.238865
v -0.200000 -0.710945 0.238865
v -0.000000 -0.721968 0.203130
v -0.200000 -0.721968 0.203130
v -0.000000 -0.731196 0.166891
v -0.200000 -0.731196 0.166891
v -0.000000 -0.738606 0.130236
v -0.200000 -0.738605 0.130236
v -0.200000 -0.744179 0.093258
v -0.000000 -0.744179 0.093258
v -0.000000 -0.747903 0.056048
v -0.200000 -0.747902 0.056048
v -0.000000 -0.749767 0.018698
v -0.200000 -0.749767 0.018698
v -0.000000 -0.749767 -0.018698
v -0.200000 -0.749767 -0.018698
v -0.000000 -0.747903 -0.056048
v -0.200000 -0.747902 -0.056048
v -0.000000 -0.744179 -0.093258
v -0.200000 -0.744179 -0.093258
v -0.000000 -0.738606 -0.130236
v -0.200000 -0.738605 -0.130236
v -0.000000 -0.731196 -0.166891
v -0.200000 -0.731196 -0.166891
v -0.000000 -0.721968 -0.203130
v -0.200000 -0.721968 -0.203130
v -0.000000 -0.710945 -0.238865
v -0.200000 -0.710945 -0.238865
v -0.000000 -0.698155 -0.274006
v -0.200000 -0.698155 -0.274006
v -0.000000 -0.683629 -0.308465
v -0.200000 -0.683629 -0.308465
v -0.000000 -0.667404 -0.342158
v -0.200000 -0.667404 -0.342158
v -0.200000 -0.649519 -0.375000
v -0.000000 -0.649519 -0.375000
v 0.000000 -0.630019 -0.406910
v -0.200000 -0.630019 -0.406910
v 0.000000 -0.608953 -0.437808
v -0.200000 -0.608953 -0.437808
v 0.000000 -0.586373 -0.467617
v -0.200000 -0.586373 -0.467617
v 0.000000 -0.562336 -0.496264
v -0.200000 -0.562336 -0.496264
v 0.000000 -0.536900 -0.523678
v -0.200000 -0.536900 -0.523678
v 0.000000 -0.510129 -0.549789
v -0.200000 -0.510129 -0.549789
v 0.000000 -0.482090 -0.574533
v -0.200000 -0.482090 -0.574533
v 0.000000 -0.452853 -0.597849
v -0.200000 -0.452853 -0.597849
v 0.000000 -0.422490 -0.619679
v -0.200000 -0.422490 -0.619679
v 0.000000 -0.391076 -0.639968
v -0.200000 -0.391076 -0.639968
v 0.000000 -0.358690 -0.658666
v -0.200000 -0.358690 -0.658666
v 0.000000 -0.325413 -0.675727
v -0.200000 -0.325412 -0.675727
v 0.000000 -0.291326 -0.691107
v -0.200000 -0.291326 -0.691107
v 0.000000 -0.256515 -0.704769
v -0.200000 -0.256515 -0.704769
v -0.200000 -0.221066 -0.716680
v 0.000000 -0.221066 -0.716680
v 0.000000 -0.185068 -0.726808
v -0.200000 -0.185068 -0.726808
v 0.000000 -0.148609 -0.735129
v -0.200000 -0.148609 -0.735129
v 0.000000 -0.111782 -0.741623
v -0.200000 -0.111781 -0.741623
v 0.000000 -0.074676 -0.746273
v -0.200000 -0.074676 -0.746273
v 0.000000 -0.037384 -0.749068
v -0.200000 -0.037384 -0.749068
v -0.200000 -0.148609 -0.735129
v -0.200000 0.037385 -0.749068
v -0.200000 0.667404 -0.342158
v -0.200000 0.721968 -0.203130
v -0.200000 0.710946 -0.238865
v -0.200000 -0.185068 0.726808
v -0.200000 -0.256515 0.704769
v -0.200000 0.747903 0.056048
v -0.200000 0.744180 0.093258
v -0.200000 0.731196 0.166891
v -0.200000 0.738606 0.130236
v -0.200000 0.721968 0.203130
v -0.200000 0.148610 0.735129
v -0.200000 0.710946 0.238865
vn -0.0000 0.0249 -0.9997
vn -0.0000 0.0747 -0.9972
vn -0.0000 0.1243 -0.9922
vn -0.0000 0.1736 -0.9848
vn -0.0000 0.2225 -0.9749
vn -0.0000 0.1737 -0.9848
vn -0.0000 0.2708 -0.9626
vn -0.0000 0.3185 -0.9479
vn -0.0000 0.3653 -0.9309
vn -0.0000 0.4113 -0.9115
vn -0.0000 0.4562 -0.8899
vn -0.0000 0.5000 -0.8660
vn -0.0000 0.5425 -0.8400
vn -0.0000 0.5837 -0.8119
vn -0.0000 0.6235 -0.7818
vn -0.0000 0.6617 -0.7498
vn -0.0000 0.6982 -0.7159
vn -0.0000 0.7331 -0.6802
vn -0.0000 0.7660 -0.6428
vn -0.0000 0.7971 -0.6038
vn -0.0000 0.8262 -0.5633
vn -0.0000 0.8533 -0.5214
vn -0.0000 0.8782 -0.4783
vn -0.0000 0.9010 -0.4339
vn -0.0000 0.9215 -0.3884
vn -0.0000 0.9397 -0.3420
vn -0.0000 0.9556 -0.2948
vn -0.0000 0.9691 -0.2468
vn -0.0000 0.9802 -0.1981
vn -0.0000 0.9888 -0.1490
vn -0.0000 0.9950 -0.0996
vn -0.0000 0.9988 -0.0498
vn -0.0000 1.0000 -0.0000
vn -0.0000 0.9988 0.0498
vn -0.0000 0.9950 0.0996
vn -0.0000 0.9888 0.1490
vn -0.0000 0.9802 0.1981
vn -0.0000 0.9691 0.2468
vn -0.0000 0.9556 0.2948
vn -0.0000 0.9397 0.3420
vn -0.0000 0.9215 0.3884
vn -0.0000 0.9010 0.4339
vn -0.0000 0.8782 0.4783
vn -0.0000 0.8533 0.5214
vn -0.0000 0.8262 0.5633
vn -0.0000 0.7971 0.6038
vn -0.0000 0.7660 0.6428
vn -0.0000 0.7331 0.6802
vn -0.0000 0.6982 0.7159
vn -0.0000 0.6617 0.7498
vn -0.0000 0.6235 0.7818
vn -0.0000 0.5837 0.8119
vn -0.0000 0.5425 0.8400
vn -0.0000 0.5000 0.8660
vn -0.0000 0.4562 0.8899
vn -0.0000 0.4113 0.9115
vn -0.0000 0.3653 0.9309
vn -0.0000 0.3185 0.9479
vn -0.0000 0.2708 0.9626
vn -0.0000 0.2225 0.9749
vn -0.0000 0.1736 0.9848
vn -0.0000 0.1737 0.9848
vn -0.0000 0.1243 0.9922
vn -0.0000 0.0747 0.9972
vn -0.0000 0.0249 0.9997
vn -0.0000 -0.0249 0.9997
vn -0.0000 -0.0747 0.9972
vn -0.0000 -0.1243 0.9922
vn -0.0000 -0.1737 0.9848
vn -0.0000 -0.1736 0.9848
vn -0.0000 -0.2225 0.9749
vn -0.0000 -0.2708 0.9626
vn -0.0000 -0.3185 0.9479
vn -0.0000 -0.3653 0.9309
vn -0.0000 -0.4113 0.9115
vn -0.0000 -0.4562 0.8899
vn -0.0000 -0.5000 0.8660
vn -0.0000 -0.5425 0.8400
vn -0.0000 -0.5837 0.8119
vn -0.0000 -0.6235 0.7818
vn -0.0000 -0.6617 0.7498
vn -0.0000 -0.6982 0.7159
vn -0.0000 -0.7331 0.6802
vn -0.0000 -0.7660 0.6428
vn -0.0000 -0.7971 0.6038
vn -0.0000 -0.8262 0.5633
vn -0.0000 -0.8533 0.5214
vn -0.0000 -0.8782 0.4783
vn -0.0000 -0.9010 0.4339
vn -0.0000 -0.9215 0.3884
vn -0.0000 -0.9397 0.3420
vn -0.0000 -0.9556 0.2948
vn -0.0000 -0.9691 0.2468
vn -0.0000 -0.9802 0.1981
vn -0.0000 -0.9888 0.1490
vn -0.0000 -0.9950 0.0996
vn -0.0000 -0.9988 0.0498
vn -0.0000 -1.0000 -0.0000
vn -0.0000 -0.9988 -0.0498
vn -0.0000 -0.9950 -0.0996
vn -0.0000 -0.9888 -0.1490
vn -0.0000 -0.9802 -0.1981
vn -0.0000 -0.9691 -0.2468
vn -0.0000 -0.9556 -0.2948
vn -0.0000 -0.9397 -0.3420
vn -0.0000 -0.9215 -0.3884
vn -0.0000 -0.9010 -0.4339
vn -0.0000 -0.8782 -0.4783
vn -0.0000 -0.8533 -0.5214
vn -0.0000 -0.8262 -0.5633
vn -0.0000 -0.7971 -0.6038
vn -0.0000 -0.7660 -0.6428
vn -0.0000 -0.7331 -0.6802
vn -0.0000 -0.6982 -0.7159
vn -0.0000 -0.6617 -0.7498
vn -0.0000 -0.6235 -0.7818
vn -0.0000 -0.5837 -0.8119
vn -0.0000 -0.5425 -0.8400
vn -0.0000 -0.5000 -0.8660
vn -0.0000 -0.4562 -0.8899
vn -0.0000 -0.4113 -0.9115
vn -0.0000 -0.3653 -0.9309
vn -0.0000 -0.3185 -0.9479
vn -0.0000 -0.2708 -0.9626
vn -0.0000 -0.2225 -0.9749
vn -0.0000 -0.1737 -0.9848
vn -0.0000 -0.1736 -0.9848
vn -0.0000 -0.1243 -0.9922
vn -0.0000 -0.0747 -0.9972
vn -0.0000 -0.0249 -0.9997
vn 1.0000 -0.0000 -0.0000
vn -1.0000 -0.0000 -0.0000
s 0
usemtl default_material.003
f 1//1 2//1 3//1
f 1//1 3//1 4//1
f 1//2 4//2 5//2
f 6//3 5//3 7//3
f 6//2 1//2 5//2
f 8//3 6//3 7//3
f 9//4 7//4 10//4
f 9//5 10//5 11//5
f 9//6 8//6 7//6
f 12//5 9//5 11//5
f 13//7 11//7 14//7
f 13//7 12//7 11//7
f 15//8 14//8 16//8
f 15//9 16//9 17//9
f 15//8 13//8 14//8
f 18//9 15//9 17//9
f 19//10 17//10 20//10
f 19//10 18//10 17//10
f 21//11 20//11 22//11
f 21//11 19//11 20//11
f 23//12 21//12 22//12
f 23//12 22//12 24//12
f 23//13 24//13 25//13
f 26//13 23//13 25//13
f 27//14 26//14 25//14
f 27//14 25//14 28//14
f 29//15 27//15 28//15
f 29//15 28//15 30//15
f 31//16 30//16 32//16
f 31//17 32//17 33//17
f 31//16 29//16 30//16
f 34//17 31//17 33//17
f 35//18 33//18 36//18
f 35//18 34//18 33//18
f 37//19 36//19 38//19
f 37//20 38//20 39//20
f 37//19 35//19 36//19
f 40//20 37//20 39//20
f 41//21 39//21 42//21
f 41//21 40//21 39//21
f 43//22 42//22 44//22
f 43//22 41//22 42//22
f 45//23 44//23 46//23
f 45//23 43//23 44//23
f 47//24 46//24 48//24
f 47//24 45//24 46//24
f 49//25 48//25 50//25
f 49//25 47//25 48//25
f 51//26 50//26 52//26
f 51//26 49//26 50//26
f 53//27 52//27 54//27
f 53//27 51//27 52//27
f 55//28 54//28 56//28
f 55//28 53//28 54//28
f 57//29 56//29 58//29
f 57//30 58//30 59//30
f 57//29 55//29 56//29
f 60//30 57//30 59//30
f 61//31 59//31 62//31
f 61//31 60//31 59//31
f 63//32 62//32 64//32
f 63//32 61//32 62//32
f 65//33 64//33 66//33
f 65//33 63//33 64//33
f 67//34 66//34 68//34
f 67//34 65//34 66//34
f 69//35 68//35 70//35
f 69//35 67//35 68//35
f 71//36 70//36 72//36
f 71//36 69//36 70//36
f 73//37 72//37 74//37
f 73//37 71//37 72//37
f 75//38 74//38 76//38
f 75//39 76//39 77//39
f 75//38 73//38 74//38
f 78//39 75//39 77//39
f 78//40 77//40 79//40
f 80//40 78//40 79//40
f 81//41 80//41 79//41
f 81//41 79//41 82//41
f 83//42 81//42 82//42
f 83//42 82//42 84//42
f 85//43 83//43 84//43
f 85//43 84//43 86//43
f 87//44 85//44 86//44
f 87//44 86//44 88//44
f 89//45 87//45 88//45
f 89//45 88//45 90//45
f 91//46 89//46 90//46
f 91//46 90//46 92//46
f 93//47 91//47 92//47
f 93//47 92//47 94//47
f 93//48 94//48 95//48
f 96//48 93//48 95//48
f 97//49 95//49 98//49
f 97//49 96//49 95//49
f 99//50 98//50 100//50
f 99//50 97//50 98//50
f 101//51 100//51 102//51
f 101//52 102//52 103//52
f 101//51 99//51 100//51
f 104//52 101//52 103//52
f 105//53 103//53 106//53
f 105//54 106//54 107//54
f 105//53 104//53 103//53
f 108//54 105//54 107//54
f 109//55 107//55 110//55
f 109//56 110//56 111//56
f 109//55 108//55 107//55
f 112//56 109//56 111//56
f 113//57 111//57 114//57
f 113//57 112//57 111//57
f 115//58 114//58 116//58
f 115//59 116//59 117//59
f 115//58 113//58 114//58
f 118//59 115//59 117//59
f 119//60 117//60 120//60
f 119//60 118//60 117//60
f 121//61 120//61 122//61
f 121//62 119//62 120//62
f 123//63 122//63 124//63
f 123//63 121//63 122//63
f 125//64 123//64 124//64
f 125//64 124//64 126//64
f 125//65 126//65 127//65
f 128//65 125//65 127//65
f 128//66 127//66 129//66
f 130//66 128//66 129//66
f 131//67 130//67 129//67
f 131//67 129//67 132//67
f 131//68 132//68 133//68
f 134//68 131//68 133//68
f 134//69 133//69 135//69
f 136//70 134//70 135//70
f 136//71 135//71 137//71
f 138//71 136//71 137//71
f 139//72 138//72 137//72
f 139//72 137//72 140//72
f 139//73 140//73 141//73
f 142//73 139//73 141//73
f 142//74 141//74 143//74
f 144//74 142//74 143//74
f 145//75 144//75 143//75
f 145//75 143//75 146//75
f 145//76 146//76 147//76
f 148//76 145//76 147//76
f 149//77 148//77 147//77
f 149//77 147//77 150//77
f 151//78 149//78 150//78
f 151//78 150//78 152//78
f 153//79 151//79 152//79
f 153//79 152//79 154//79
f 153//80 154//80 155//80
f 156//80 153//80 155//80
f 157//81 156//81 155//81
f 157//81 155//81 158//81
f 159//82 157//82 158//82
f 159//82 158//82 160//82
f 159//83 160//83 161//83
f 162//83 159//83 161//83
f 163//84 162//84 161//84
f 163//84 161//84 164//84
f 165//85 163//85 164//85
f 165//85 164//85 166//85
f 167//86 166//86 168//86
f 167//86 165//86 166//86
f 167//87 168//87 169//87
f 170//87 167//87 169//87
f 171//88 169//88 172//88
f 171//88 170//88 169//88
f 173//89 172//89 174//89
f 173//89 171//89 172//89
f 175//90 174//90 176//90
f 175//90 173//90 174//90
f 177//91 175//91 176//91
f 177//91 176//91 178//91
f 179//92 177//92 178//92
f 179//92 178//92 180//92
f 181//93 179//93 180//93
f 181//93 180//93 182//93
f 183//94 181//94 182//94
f 183//94 182//94 184//94
f 183//95 184//95 185//95
f 186//95 183//95 185//95
f 187//96 186//96 185//96
f 187//96 185//96 188//96
f 189//97 187//97 188//97
f 189//97 188//97 190//97
f 191//98 189//98 190//98
f 191//98 190//98 192//98
f 193//99 191//99 192//99
f 193//99 192//99 194//99
f 195//100 193//100 194//100
f 195//100 194//100 196//100
f 197//101 195//101 196//101
f 197//101 196//101 198//101
f 199//102 197//102 198//102
f 199//102 198//102 200//102
f 201//103 200//103 202//103
f 201//103 199//103 200//103
f 203//104 202//104 204//104
f 203//104 201//104 202//104
f 205//105 204//105 206//105
f 205//105 203//105 204//105
f 207//106 206//106 208//106
f 207//106 205//106 206//106
f 209//107 208//107 210//107
f 209//108 210//108 211//108
f 209//107 207//107 208//107
f 212//108 209//108 211//108
f 213//109 211//109 214//109
f 213//109 212//109 211//109
f 215//110 214//110 216//110
f 215//110 213//110 214//110
f 217//111 216//111 218//111
f 217//111 215//111 216//111
f 219//112 218//112 220//112
f 219//112 217//112 218//112
f 221//113 220//113 222//113
f 221//113 219//113 220//113
f 223//114 222//114 224//114
f 223//114 221//114 222//114
f 225//115 223//115 224//115
f 225//115 224//115 226//115
f 227//116 225//116 226//116
f 227//116 226//116 228//116
f 229//117 227//117 228//117
f 229//117 228//117 230//117
f 231//118 229//118 230//118
f 231//118 230//118 232//118
f 233//119 231//119 232//119
f 233//119 232//119 234//119
f 235//120 234//120 236//120
f 235//120 233//120 234//120
f 237//121 236//121 238//121
f 237//121 235//121 236//121
f 239//122 238//122 240//122
f 239//123 240//123 241//123
f 239//122 237//122 238//122
f 242//123 239//123 241//123
f 243//124 241//124 244//124
f 243//124 242//124 241//124
f 245//125 244//125 246//125
f 245//125 243//125 244//125
f 247//126 246//126 248//126
f 247//127 245//127 246//127
f 249//128 248//128 250//128
f 249//128 247//128 248//128
f 251//129 250//129 252//129
f 251//130 252//130 3//130
f 251//129 249//129 250//129
f 2//130 251//130 3//130
f 225//131 219//131 221//131
f 225//131 221//131 223//131
f 215//131 217//131 219//131
f 229//131 225//131 227//131
f 212//131 213//131 215//131
f 235//131 229//131 231//131
f 235//131 231//131 233//131
f 203//131 205//131 207//131
f 203//131 207//131 209//131
f 203//131 209//131 212//131
f 203//131 215//131 219//131
f 203//131 212//131 215//131
f 242//131 235//131 237//131
f 242//131 237//131 239//131
f 242//131 219//131 225//131
f 242//131 225//131 229//131
f 242//131 229//131 235//131
f 201//131 203//131 219//131
f 201//131 219//131 242//131
f 247//131 242//131 243//131
f 247//131 243//131 245//131
f 247//131 201//131 242//131
f 247//131 199//131 201//131
f 193//131 195//131 197//131
f 2//131 247//131 249//131
f 2//131 249//131 251//131
f 189//131 191//131 193//131
f 6//131 2//131 1//131
f 6//131 247//131 2//131
f 186//131 193//131 197//131
f 186//131 189//131 193//131
f 186//131 187//131 189//131
f 9//131 6//131 8//131
f 181//131 183//131 186//131
f 12//131 6//131 9//131
f 13//131 6//131 12//131
f 13//131 247//131 6//131
f 175//131 177//131 179//131
f 175//131 179//131 181//131
f 18//131 13//131 15//131
f 173//131 181//131 186//131
f 173//131 175//131 181//131
f 19//131 13//131 18//131
f 170//131 171//131 173//131
f 26//131 19//131 21//131
f 26//131 21//131 23//131
f 26//131 247//131 13//131
f 26//131 13//131 19//131
f 26//131 199//131 247//131
f 26//131 186//131 197//131
f 26//131 197//131 199//131
f 165//131 167//131 170//131
f 163//131 173//131 186//131
f 163//131 170//131 173//131
f 163//131 165//131 170//131
f 31//131 26//131 27//131
f 31//131 27//131 29//131
f 157//131 159//131 162//131
f 35//131 31//131 34//131
f 156//131 186//131 26//131
f 156//131 163//131 186//131
f 156//131 26//131 31//131
f 156//131 157//131 162//131
f 156//131 162//131 163//131
f 40//131 35//131 37//131
f 40//131 31//131 35//131
f 41//131 31//131 40//131
f 148//131 149//131 151//131
f 148//131 151//131 153//131
f 45//131 41//131 43//131
f 47//131 31//131 41//131
f 47//131 41//131 45//131
f 144//131 145//131 148//131
f 142//131 144//131 148//131
f 53//131 47//131 49//131
f 53//131 49//131 51//131
f 53//131 156//131 31//131
f 53//131 153//131 156//131
f 53//131 31//131 47//131
f 138//131 139//131 142//131
f 138//131 148//131 153//131
f 138//131 142//131 148//131
f 57//131 53//131 55//131
f 131//131 134//131 136//131
f 61//131 57//131 60//131
f 61//131 53//131 57//131
f 65//131 61//131 63//131
f 67//131 53//131 61//131
f 67//131 61//131 65//131
f 123//131 125//131 128//131
f 123//131 128//131 130//131
f 71//131 67//131 69//131
f 118//131 123//131 130//131
f 118//131 119//131 121//131
f 118//131 121//131 123//131
f 118//131 130//131 131//131
f 75//131 71//131 73//131
f 78//131 71//131 75//131
f 113//131 131//131 136//131
f 113//131 118//131 131//131
f 113//131 115//131 118//131
f 112//131 113//131 136//131
f 112//131 136//131 138//131
f 81//131 78//131 80//131
f 109//131 112//131 138//131
f 83//131 78//131 81//131
f 85//131 67//131 71//131
f 85//131 53//131 67//131
f 85//131 71//131 78//131
f 85//131 78//131 83//131
f 85//131 153//131 53//131
f 104//131 109//131 138//131
f 104//131 105//131 108//131
f 104//131 108//131 109//131
f 104//131 138//131 153//131
f 89//131 85//131 87//131
f 101//131 104//131 153//131
f 91//131 85//131 89//131
f 93//131 85//131 91//131
f 96//131 97//131 99//131
f 96//131 99//131 101//131
f 96//131 153//131 85//131
f 96//131 101//131 153//131
f 96//131 85//131 93//131
f 222//132 220//132 224//132
f 226//132 234//132 228//132
f 228//132 234//132 230//132
f 230//132 234//132 232//132
f 210//132 208//132 211//132
f 211//132 208//132 214//132
f 214//132 208//132 216//132
f 216//132 208//132 218//132
f 218//132 208//132 220//132
f 224//132 208//132 226//132
f 220//132 208//132 224//132
f 234//132 238//132 236//132
f 226//132 240//132 234//132
f 234//132 240//132 238//132
f 206//132 204//132 208//132
f 202//132 200//132 204//132
f 204//132 200//132 208//132
f 241//132 253//132 244//132
f 253//132 3//132 248//132
f 248//132 3//132 250//132
f 250//132 3//132 252//132
f 241//132 3//132 253//132
f 192//132 190//132 194//132
f 194//132 190//132 196//132
f 196//132 190//132 198//132
f 241//132 254//132 3//132
f 240//132 5//132 241//132
f 226//132 5//132 240//132
f 241//132 5//132 254//132
f 188//132 185//132 190//132
f 190//132 185//132 198//132
f 5//132 10//132 7//132
f 5//132 11//132 10//132
f 182//132 180//132 184//132
f 184//132 180//132 185//132
f 208//132 14//132 226//132
f 5//132 14//132 11//132
f 200//132 14//132 208//132
f 226//132 14//132 5//132
f 185//132 14//132 198//132
f 198//132 14//132 200//132
f 185//132 174//132 14//132
f 180//132 174//132 185//132
f 176//132 174//132 178//132
f 178//132 174//132 180//132
f 14//132 20//132 16//132
f 16//132 20//132 17//132
f 172//132 169//132 174//132
f 169//132 168//132 174//132
f 20//132 25//132 22//132
f 22//132 25//132 24//132
f 168//132 166//132 174//132
f 14//132 32//132 20//132
f 25//132 32//132 28//132
f 28//132 32//132 30//132
f 20//132 32//132 25//132
f 161//132 160//132 164//132
f 160//132 158//132 164//132
f 32//132 36//132 33//132
f 36//132 39//132 38//132
f 14//132 39//132 32//132
f 32//132 39//132 36//132
f 158//132 152//132 164//132
f 154//132 152//132 155//132
f 155//132 152//132 158//132
f 174//132 42//132 14//132
f 14//132 42//132 39//132
f 152//132 150//132 164//132
f 42//132 255//132 44//132
f 174//132 255//132 42//132
f 166//132 146//132 174//132
f 150//132 146//132 164//132
f 147//132 146//132 150//132
f 164//132 146//132 166//132
f 48//132 256//132 50//132
f 50//132 256//132 257//132
f 140//132 258//132 259//132
f 255//132 56//132 48//132
f 174//132 56//132 255//132
f 48//132 56//132 256//132
f 135//132 133//132 258//132
f 259//132 133//132 143//132
f 258//132 133//132 259//132
f 143//132 132//132 146//132
f 146//132 132//132 174//132
f 133//132 132//132 143//132
f 56//132 64//132 58//132
f 58//132 64//132 59//132
f 59//132 64//132 62//132
f 56//132 122//132 64//132
f 132//132 122//132 174//132
f 64//132 122//132 66//132
f 66//132 122//132 260//132
f 124//132 122//132 126//132
f 126//132 122//132 127//132
f 127//132 122//132 129//132
f 129//132 122//132 132//132
f 174//132 122//132 56//132
f 261//132 262//132 263//132
f 260//132 264//132 261//132
f 261//132 264//132 262//132
f 111//132 110//132 114//132
f 114//132 110//132 116//132
f 116//132 110//132 117//132
f 117//132 110//132 265//132
f 110//132 107//132 265//132
f 122//132 86//132 260//132
f 260//132 86//132 264//132
f 264//132 86//132 266//132
f 266//132 86//132 79//132
f 79//132 86//132 82//132
f 82//132 86//132 84//132
f 265//132 86//132 122//132
f 107//132 106//132 265//132
f 106//132 103//132 265//132
f 86//132 90//132 88//132
f 102//132 100//132 103//132
f 86//132 98//132 90//132
f 265//132 98//132 86//132
f 103//132 98//132 265//132
f 100//132 98//132 103//132
f 90//132 95//132 92//132
f 92//132 95//132 94//132
f 98//132 95//132 90//132
