# Blender 3.6.1
# www.blender.org
mtllib base.mtl
o node0
v 1.000000 0.000000 1.500000
v 1.000000 0.000000 -1.500000
v 1.000000 0.700000 1.500000
v 1.000000 0.700000 -1.500000
v -1.000000 0.000000 -1.500000
v -1.000000 0.700000 -1.500000
v -1.000000 0.000000 1.500000
v -1.000000 0.700000 1.500000
vn 1.0000 -0.0000 -0.0000
vn -0.0000 -0.0000 -1.0000
vn -1.0000 -0.0000 -0.0000
vn -0.0000 -0.0000 1.0000
vn -0.0000 -1.0000 -0.0000
vn -0.0000 1.0000 -0.0000
s 0
usemtl default_material
f 1//1 2//1 3//1
f 3//1 2//1 4//1
f 2//2 5//2 4//2
f 4//2 5//2 6//2
f 5//3 7//3 6//3
f 6//3 7//3 8//3
f 7//4 1//4 8//4
f 8//4 1//4 3//4
f 5//5 2//5 7//5
f 7//5 2//5 1//5
f 4//6 6//6 8//6
f 4//6 8//6 3//6
