# Blender 3.6.1
# www.blender.org
mtllib left_wheel2.mtl
o node0
v 0.000000 -0.000000 -0.675000
v -0.000000 0.033646 -0.674161
v 0.200000 -0.000000 -0.675000
v 0.200000 0.033646 -0.674161
v 0.200000 0.067208 -0.671646
v -0.000000 0.067208 -0.671646
v 0.200000 0.100603 -0.667461
v -0.000000 0.100603 -0.667461
v -0.000000 0.133749 -0.661616
v 0.200000 0.133749 -0.661616
v 0.200000 0.166561 -0.654127
v -0.000000 0.166561 -0.654127
v -0.000000 0.198960 -0.645012
v 0.200000 0.198960 -0.645012
v -0.000000 0.230864 -0.634292
v 0.200000 0.230864 -0.634292
v 0.200000 0.262194 -0.621996
v -0.000000 0.262194 -0.621996
v -0.000000 0.292872 -0.608154
v 0.200000 0.292872 -0.608154
v -0.000000 0.322821 -0.592800
v 0.200000 0.322821 -0.592800
v -0.000000 0.351969 -0.575971
v 0.200000 0.351969 -0.575971
v 0.200000 0.380241 -0.557711
v -0.000000 0.380241 -0.557711
v -0.000000 0.407568 -0.538064
v 0.200000 0.407568 -0.538064
v -0.000000 0.433882 -0.517080
v 0.200000 0.433882 -0.517080
v -0.000000 0.459117 -0.494810
v 0.200000 0.459117 -0.494810
v 0.200000 0.483210 -0.471310
v -0.000000 0.483210 -0.471310
v -0.000000 0.506102 -0.446638
v 0.200000 0.506102 -0.446638
v -0.000000 0.527736 -0.420856
v 0.200000 0.527736 -0.420856
v 0.200000 0.548058 -0.394027
v -0.000000 0.548058 -0.394027
v -0.000000 0.567017 -0.366219
v 0.200000 0.567017 -0.366219
v -0.000000 0.584567 -0.337500
v 0.200000 0.584567 -0.337500
v -0.000000 0.600663 -0.307942
v 0.200000 0.600663 -0.307942
v -0.000000 0.615267 -0.277619
v 0.200000 0.615267 -0.277619
v -0.000000 0.628340 -0.246605
v 0.200000 0.628340 -0.246605
v -0.000000 0.639851 -0.214978
v 0.200000 0.639851 -0.214978
v -0.000000 0.649771 -0.182817
v 0.200000 0.649771 -0.182817
v -0.000000 0.658076 -0.150202
v 0.200000 0.658076 -0.150202
v -0.000000 0.664745 -0.117212
v 0.200000 0.664745 -0.117212
v 0.200000 0.669761 -0.083932
v -0.000000 0.669761 -0.083932
v -0.000000 0.673113 -0.050443
v 0.200000 0.673113 -0.050443
v -0.000000 0.674790 -0.016828
v 0.200000 0.674790 -0.016828
v -0.000000 0.674790 0.016828
v 0.200000 0.674790 0.016828
v -0.000000 0.673113 0.050443
v 0.200000 0.673113 0.050443
v -0.000000 0.669761 0.083932
v 0.200000 0.669761 0.083932
v -0.000000 0.664745 0.117212
v 0.200000 0.664745 0.117212
v -0.000000 0.658076 0.150202
v 0.200000 0.658076 0.150202
v -0.000000 0.649771 0.182817
v 0.200000 0.649771 0.182817
v 0.200000 0.639851 0.214978
v -0.000000 0.639851 0.214978
v 0.200000 0.628340 0.246605
v -0.000000 0.628340 0.246605
v -0.000000 0.615267 0.277619
v 0.200000 0.615267 0.277619
v -0.000000 0.600663 0.307942
v 0.200000 0.600663 0.307942
v -0.000000 0.584567 0.337500
v 0.200000 0.584567 0.337500
v -0.000000 0.567017 0.366219
v 0.200000 0.567017 0.366219
v -0.000000 0.548058 0.394027
v 0.200000 0.548058 0.394027
v -0.000000 0.527736 0.420856
v 0.200000 0.527736 0.420856
v -0.000000 0.506102 0.446638
v 0.200000 0.506102 0.446638
v 0.200000 0.483210 0.471310
v -0.000000 0.483210 0.471310
v -0.000000 0.459117 0.494810
v 0.200000 0.459117 0.494810
v -0.000000 0.433882 0.517080
v 0.200000 0.433882 0.517080
v -0.000000 0.407568 0.538064
v 0.200000 0.407568 0.538064
v 0.200000 0.380241 0.557711
v -0.000000 0.380241 0.557711
v 0.000000 0.351969 0.575971
v 0.200000 0.351969 0.575971
v 0.200000 0.322821 0.592800
v 0.000000 0.322821 0.592800
v 0.000000 0.292872 0.608154
v 0.200000 0.292872 0.608154
v 0.200000 0.262194 0.621996
v 0.000000 0.262194 0.621996
v 0.000000 0.230864 0.634292
v 0.200000 0.230864 0.634292
v 0.000000 0.198960 0.645012
v 0.200000 0.198960 0.645012
v 0.200000 0.166561 0.654127
v 0.000000 0.166561 0.654127
v 0.000000 0.133749 0.661616
v 0.200000 0.133749 0.661616
v 0.000000 0.100603 0.667461
v 0.200000 0.100603 0.667461
v 0.000000 0.067208 0.671646
v 0.200000 0.067208 0.671646
v 0.000000 0.033646 0.674161
v 0.200000 0.033646 0.674161
v 0.200000 -0.000000 0.675000
v 0.000000 -0.000000 0.675000
v 0.200000 -0.033646 0.674161
v 0.000000 -0.033646 0.674161
v 0.000000 -0.067208 0.671646
v 0.200000 -0.067208 0.671646
v 0.200000 -0.100603 0.667461
v 0.000000 -0.100603 0.667461
v 0.200000 -0.133749 0.661616
v 0.000000 -0.133749 0.661616
v 0.200000 -0.166561 0.654127
v 0.000000 -0.166561 0.654127
v 0.000000 -0.198960 0.645012
v 0.200000 -0.198960 0.645012
v 0.200000 -0.230864 0.634292
v 0.000000 -0.230864 0.634292
v 0.200000 -0.262194 0.621996
v 0.000000 -0.262194 0.621996
v 0.000000 -0.292872 0.608154
v 0.200000 -0.292872 0.608154
v 0.200000 -0.322821 0.592800
v 0.000000 -0.322821 0.592800
v 0.000000 -0.351969 0.575971
v 0.200000 -0.351969 0.575971
v 0.000000 -0.380241 0.557711
v 0.200000 -0.380241 0.557711
v 0.000000 -0.407568 0.538064
v 0.200000 -0.407568 0.538064
v 0.200000 -0.433882 0.517080
v 0.000000 -0.433882 0.517080
v 0.000000 -0.459117 0.494810
v 0.200000 -0.459117 0.494810
v 0.000000 -0.483210 0.471310
v 0.200000 -0.483210 0.471310
v 0.200000 -0.506102 0.446638
v 0.000000 -0.506102 0.446638
v 0.000000 -0.527736 0.420856
v 0.200000 -0.527736 0.420856
v 0.000000 -0.548058 0.394027
v 0.200000 -0.548058 0.394027
v 0.000000 -0.567017 0.366219
v 0.200000 -0.567017 0.366219
v 0.200000 -0.584567 0.337500
v 0.000000 -0.584567 0.337500
v 0.000000 -0.600663 0.307942
v 0.200000 -0.600663 0.307942
v 0.000000 -0.615267 0.277619
v 0.200000 -0.615267 0.277619
v 0.000000 -0.628340 0.246605
v 0.200000 -0.628340 0.246605
v 0.000000 -0.639851 0.214978
v 0.200000 -0.639851 0.214978
v 0.000000 -0.649771 0.182817
v 0.200000 -0.649771 0.182817
v 0.000000 -0.658076 0.150202
v 0.200000 -0.658076 0.150202
v 0.000000 -0.664745 0.117212
v 0.200000 -0.664745 0.117212
v 0.200000 -0.669761 0.083932
v 0.000000 -0.669761 0.083932
v 0.000000 -0.673113 0.050443
v 0.200000 -0.673113 0.050443
v 0.000000 -0.674790 0.016828
v 0.200000 -0.674790 0.016828
v 0.000000 -0.674790 -0.016828
v 0.200000 -0.674790 -0.016828
v 0.000000 -0.673113 -0.050443
v 0.200000 -0.673113 -0.050443
v 0.000000 -0.669761 -0.083932
v 0.200000 -0.669761 -0.083932
v 0.000000 -0.664745 -0.117212
v 0.200000 -0.664745 -0.117212
v 0.000000 -0.658076 -0.150202
v 0.200000 -0.658076 -0.150202
v 0.000000 -0.649771 -0.182817
v 0.200000 -0.649771 -0.182817
v 0.000000 -0.639851 -0.214978
v 0.200000 -0.639851 -0.214978
v 0.000000 -0.628340 -0.246605
v 0.200000 -0.628340 -0.246605
v 0.000000 -0.615267 -0.277619
v 0.200000 -0.615267 -0.277619
v 0.000000 -0.600663 -0.307942
v 0.200000 -0.600663 -0.307942
v 0.200000 -0.584567 -0.337500
v 0.000000 -0.584567 -0.337500
v 0.000000 -0.567017 -0.366219
v 0.200000 -0.567017 -0.366219
v 0.000000 -0.548058 -0.394027
v 0.200000 -0.548058 -0.394027
v 0.000000 -0.527736 -0.420856
v 0.200000 -0.527736 -0.420856
v 0.000000 -0.506102 -0.446638
v 0.200000 -0.506102 -0.446638
v 0.000000 -0.483210 -0.471310
v 0.200000 -0.483210 -0.471310
v 0.000000 -0.459117 -0.494810
v 0.200000 -0.459117 -0.494810
v 0.000000 -0.433882 -0.517080
v 0.200000 -0.433882 -0.517080
v 0.000000 -0.407568 -0.538064
v 0.200000 -0.407568 -0.538064
v 0.000000 -0.380241 -0.557711
v 0.200000 -0.380241 -0.557711
v -0.000000 -0.351969 -0.575971
v 0.200000 -0.351969 -0.575971
v -0.000000 -0.322821 -0.592800
v 0.200000 -0.322821 -0.592800
v -0.000000 -0.292872 -0.608154
v 0.200000 -0.292872 -0.608154
v -0.000000 -0.262194 -0.621996
v 0.200000 -0.262194 -0.621996
v -0.000000 -0.230864 -0.634292
v 0.200000 -0.230864 -0.634292
v 0.200000 -0.198960 -0.645012
v -0.000000 -0.198960 -0.645012
v -0.000000 -0.166561 -0.654127
v 0.200000 -0.166561 -0.654127
v -0.000000 -0.133749 -0.661616
v 0.200000 -0.133749 -0.661616
v -0.000000 -0.100603 -0.667461
v 0.200000 -0.100603 -0.667461
v -0.000000 -0.067208 -0.671646
v 0.200000 -0.067208 -0.671646
v -0.000000 -0.033646 -0.674161
v 0.200000 -0.033646 -0.674161
v 0.200000 -0.000000 -0.675000
vn -0.0000 0.0249 -0.9997
vn -0.0000 0.0747 -0.9972
vn -0.0000 0.1243 -0.9922
vn -0.0000 0.1736 -0.9848
vn -0.0000 0.2225 -0.9749
vn -0.0000 0.2708 -0.9626
vn -0.0000 0.3185 -0.9479
vn -0.0000 0.3653 -0.9309
vn -0.0000 0.4113 -0.9115
vn -0.0000 0.4562 -0.8899
vn -0.0000 0.5000 -0.8660
vn -0.0000 0.5425 -0.8400
vn -0.0000 0.5837 -0.8119
vn -0.0000 0.6235 -0.7818
vn -0.0000 0.6617 -0.7498
vn -0.0000 0.6982 -0.7159
vn -0.0000 0.7331 -0.6802
vn -0.0000 0.7660 -0.6428
vn -0.0000 0.7971 -0.6038
vn -0.0000 0.8262 -0.5633
vn -0.0000 0.8533 -0.5214
vn -0.0000 0.8782 -0.4783
vn -0.0000 0.9010 -0.4339
vn -0.0000 0.9215 -0.3884
vn -0.0000 0.9397 -0.3420
vn -0.0000 0.9556 -0.2948
vn -0.0000 0.9691 -0.2468
vn -0.0000 0.9802 -0.1981
vn -0.0000 0.9888 -0.1490
vn -0.0000 0.9950 -0.0996
vn -0.0000 0.9988 -0.0498
vn -0.0000 1.0000 -0.0000
vn -0.0000 0.9988 0.0498
vn -0.0000 0.9950 0.0996
vn -0.0000 0.9888 0.1490
vn -0.0000 0.9802 0.1981
vn -0.0000 0.9691 0.2468
vn -0.0000 0.9556 0.2948
vn -0.0000 0.9397 0.3420
vn -0.0000 0.9215 0.3884
vn -0.0000 0.9010 0.4339
vn -0.0000 0.8782 0.4783
vn -0.0000 0.8533 0.5214
vn -0.0000 0.8262 0.5633
vn -0.0000 0.7971 0.6038
vn -0.0000 0.7660 0.6428
vn -0.0000 0.7331 0.6802
vn -0.0000 0.6982 0.7159
vn -0.0000 0.6617 0.7498
vn -0.0000 0.6235 0.7818
vn -0.0000 0.5837 0.8119
vn -0.0000 0.5425 0.8400
vn -0.0000 0.5000 0.8660
vn -0.0000 0.4562 0.8899
vn -0.0000 0.4113 0.9115
vn -0.0000 0.3653 0.9309
vn -0.0000 0.3185 0.9479
vn -0.0000 0.2708 0.9626
vn -0.0000 0.2225 0.9749
vn -0.0000 0.1736 0.9848
vn -0.0000 0.1243 0.9922
vn -0.0000 0.0747 0.9972
vn -0.0000 0.0249 0.9997
vn -0.0000 -0.0249 0.9997
vn -0.0000 -0.0747 0.9972
vn -0.0000 -0.1243 0.9922
vn -0.0000 -0.1736 0.9848
vn -0.0000 -0.2225 0.9749
vn -0.0000 -0.2708 0.9626
vn -0.0000 -0.3185 0.9479
vn -0.0000 -0.3653 0.9309
vn -0.0000 -0.4113 0.9115
vn -0.0000 -0.4562 0.8899
vn -0.0000 -0.5000 0.8660
vn -0.0000 -0.5425 0.8400
vn -0.0000 -0.5837 0.8119
vn -0.0000 -0.6235 0.7818
vn -0.0000 -0.6617 0.7498
vn -0.0000 -0.6982 0.7159
vn -0.0000 -0.7331 0.6802
vn -0.0000 -0.7660 0.6428
vn -0.0000 -0.7971 0.6038
vn -0.0000 -0.8262 0.5633
vn -0.0000 -0.8533 0.5214
vn -0.0000 -0.8782 0.4783
vn -0.0000 -0.9010 0.4339
vn -0.0000 -0.9215 0.3884
vn -0.0000 -0.9397 0.3420
vn -0.0000 -0.9556 0.2948
vn -0.0000 -0.9691 0.2468
vn -0.0000 -0.9802 0.1981
vn -0.0000 -0.9888 0.1490
vn -0.0000 -0.9950 0.0996
vn -0.0000 -0.9988 0.0498
vn -0.0000 -1.0000 -0.0000
vn -0.0000 -0.9988 -0.0498
vn -0.0000 -0.9950 -0.0996
vn -0.0000 -0.9888 -0.1490
vn -0.0000 -0.9802 -0.1981
vn -0.0000 -0.9691 -0.2468
vn -0.0000 -0.9556 -0.2948
vn -0.0000 -0.9397 -0.3420
vn -0.0000 -0.9215 -0.3884
vn -0.0000 -0.9010 -0.4339
vn -0.0000 -0.8782 -0.4783
vn -0.0000 -0.8533 -0.5214
vn -0.0000 -0.8262 -0.5633
vn -0.0000 -0.7971 -0.6038
vn -0.0000 -0.7660 -0.6428
vn -0.0000 -0.7331 -0.6802
vn -0.0000 -0.6982 -0.7159
vn -0.0000 -0.6617 -0.7498
vn -0.0000 -0.6235 -0.7818
vn -0.0000 -0.5837 -0.8119
vn -0.0000 -0.5425 -0.8400
vn -0.0000 -0.5000 -0.8660
vn -0.0000 -0.4562 -0.8899
vn -0.0000 -0.4113 -0.9115
vn -0.0000 -0.3653 -0.9309
vn -0.0000 -0.3185 -0.9479
vn -0.0000 -0.2708 -0.9626
vn -0.0000 -0.2225 -0.9749
vn -0.0000 -0.1736 -0.9848
vn -0.0000 -0.1243 -0.9922
vn -0.0000 -0.0747 -0.9972
vn -0.0000 -0.0249 -0.9997
vn -1.0000 -0.0000 -0.0000
vn 1.0000 -0.0000 -0.0000
s 0
usemtl default_material.004
f 1//1 2//1 3//1
f 3//1 2//1 4//1
f 4//2 2//2 5//2
f 5//3 6//3 7//3
f 2//2 6//2 5//2
f 6//3 8//3 7//3
f 7//4 9//4 10//4
f 10//5 9//5 11//5
f 8//4 9//4 7//4
f 9//5 12//5 11//5
f 11//6 13//6 14//6
f 12//6 13//6 11//6
f 14//7 15//7 16//7
f 16//8 15//8 17//8
f 13//7 15//7 14//7
f 15//8 18//8 17//8
f 17//9 19//9 20//9
f 18//9 19//9 17//9
f 20//10 21//10 22//10
f 19//10 21//10 20//10
f 21//11 23//11 22//11
f 22//11 23//11 24//11
f 24//12 23//12 25//12
f 23//12 26//12 25//12
f 26//13 27//13 25//13
f 25//13 27//13 28//13
f 27//14 29//14 28//14
f 28//14 29//14 30//14
f 30//15 31//15 32//15
f 32//16 31//16 33//16
f 29//15 31//15 30//15
f 31//16 34//16 33//16
f 33//17 35//17 36//17
f 34//17 35//17 33//17
f 36//18 37//18 38//18
f 38//19 37//19 39//19
f 35//18 37//18 36//18
f 37//19 40//19 39//19
f 39//20 41//20 42//20
f 40//20 41//20 39//20
f 42//21 43//21 44//21
f 41//21 43//21 42//21
f 44//22 45//22 46//22
f 43//22 45//22 44//22
f 46//23 47//23 48//23
f 45//23 47//23 46//23
f 48//24 49//24 50//24
f 47//24 49//24 48//24
f 50//25 51//25 52//25
f 49//25 51//25 50//25
f 52//26 53//26 54//26
f 51//26 53//26 52//26
f 54//27 55//27 56//27
f 53//27 55//27 54//27
f 56//28 57//28 58//28
f 58//29 57//29 59//29
f 55//28 57//28 56//28
f 57//29 60//29 59//29
f 59//30 61//30 62//30
f 60//30 61//30 59//30
f 62//31 63//31 64//31
f 61//31 63//31 62//31
f 64//32 65//32 66//32
f 63//32 65//32 64//32
f 66//33 67//33 68//33
f 65//33 67//33 66//33
f 68//34 69//34 70//34
f 67//34 69//34 68//34
f 70//35 71//35 72//35
f 69//35 71//35 70//35
f 72//36 73//36 74//36
f 71//36 73//36 72//36
f 74//37 75//37 76//37
f 76//38 75//38 77//38
f 73//37 75//37 74//37
f 75//38 78//38 77//38
f 77//39 78//39 79//39
f 78//39 80//39 79//39
f 80//40 81//40 79//40
f 79//40 81//40 82//40
f 81//41 83//41 82//41
f 82//41 83//41 84//41
f 83//42 85//42 84//42
f 84//42 85//42 86//42
f 85//43 87//43 86//43
f 86//43 87//43 88//43
f 87//44 89//44 88//44
f 88//44 89//44 90//44
f 89//45 91//45 90//45
f 90//45 91//45 92//45
f 91//46 93//46 92//46
f 92//46 93//46 94//46
f 94//47 93//47 95//47
f 93//47 96//47 95//47
f 95//48 97//48 98//48
f 96//48 97//48 95//48
f 98//49 99//49 100//49
f 97//49 99//49 98//49
f 100//50 101//50 102//50
f 102//51 101//51 103//51
f 99//50 101//50 100//50
f 101//51 104//51 103//51
f 103//52 105//52 106//52
f 106//53 105//53 107//53
f 104//52 105//52 103//52
f 105//53 108//53 107//53
f 107//54 109//54 110//54
f 110//55 109//55 111//55
f 108//54 109//54 107//54
f 109//55 112//55 111//55
f 111//56 113//56 114//56
f 112//56 113//56 111//56
f 114//57 115//57 116//57
f 116//58 115//58 117//58
f 113//57 115//57 114//57
f 115//58 118//58 117//58
f 117//59 119//59 120//59
f 118//59 119//59 117//59
f 120//60 121//60 122//60
f 119//60 121//60 120//60
f 122//61 123//61 124//61
f 121//61 123//61 122//61
f 123//62 125//62 124//62
f 124//62 125//62 126//62
f 126//63 125//63 127//63
f 125//63 128//63 127//63
f 127//64 128//64 129//64
f 128//64 130//64 129//64
f 130//65 131//65 129//65
f 129//65 131//65 132//65
f 132//66 131//66 133//66
f 131//66 134//66 133//66
f 133//67 134//67 135//67
f 134//67 136//67 135//67
f 135//68 136//68 137//68
f 136//68 138//68 137//68
f 138//69 139//69 137//69
f 137//69 139//69 140//69
f 140//70 139//70 141//70
f 139//70 142//70 141//70
f 141//71 142//71 143//71
f 142//71 144//71 143//71
f 144//72 145//72 143//72
f 143//72 145//72 146//72
f 146//73 145//73 147//73
f 145//73 148//73 147//73
f 148//74 149//74 147//74
f 147//74 149//74 150//74
f 149//75 151//75 150//75
f 150//75 151//75 152//75
f 151//76 153//76 152//76
f 152//76 153//76 154//76
f 154//77 153//77 155//77
f 153//77 156//77 155//77
f 156//78 157//78 155//78
f 155//78 157//78 158//78
f 157//79 159//79 158//79
f 158//79 159//79 160//79
f 160//80 159//80 161//80
f 159//80 162//80 161//80
f 162//81 163//81 161//81
f 161//81 163//81 164//81
f 163//82 165//82 164//82
f 164//82 165//82 166//82
f 166//83 167//83 168//83
f 165//83 167//83 166//83
f 168//84 167//84 169//84
f 167//84 170//84 169//84
f 169//85 171//85 172//85
f 170//85 171//85 169//85
f 172//86 173//86 174//86
f 171//86 173//86 172//86
f 174//87 175//87 176//87
f 173//87 175//87 174//87
f 175//88 177//88 176//88
f 176//88 177//88 178//88
f 177//89 179//89 178//89
f 178//89 179//89 180//89
f 179//90 181//90 180//90
f 180//90 181//90 182//90
f 181//91 183//91 182//91
f 182//91 183//91 184//91
f 184//92 183//92 185//92
f 183//92 186//92 185//92
f 186//93 187//93 185//93
f 185//93 187//93 188//93
f 187//94 189//94 188//94
f 188//94 189//94 190//94
f 189//95 191//95 190//95
f 190//95 191//95 192//95
f 191//96 193//96 192//96
f 192//96 193//96 194//96
f 193//97 195//97 194//97
f 194//97 195//97 196//97
f 195//98 197//98 196//98
f 196//98 197//98 198//98
f 197//99 199//99 198//99
f 198//99 199//99 200//99
f 200//100 201//100 202//100
f 199//100 201//100 200//100
f 202//101 203//101 204//101
f 201//101 203//101 202//101
f 204//102 205//102 206//102
f 203//102 205//102 204//102
f 206//103 207//103 208//103
f 205//103 207//103 206//103
f 208//104 209//104 210//104
f 210//105 209//105 211//105
f 207//104 209//104 208//104
f 209//105 212//105 211//105
f 211//106 213//106 214//106
f 212//106 213//106 211//106
f 214//107 215//107 216//107
f 213//107 215//107 214//107
f 216//108 217//108 218//108
f 215//108 217//108 216//108
f 218//109 219//109 220//109
f 217//109 219//109 218//109
f 220//110 221//110 222//110
f 219//110 221//110 220//110
f 222//111 223//111 224//111
f 221//111 223//111 222//111
f 223//112 225//112 224//112
f 224//112 225//112 226//112
f 225//113 227//113 226//113
f 226//113 227//113 228//113
f 227//114 229//114 228//114
f 228//114 229//114 230//114
f 229//115 231//115 230//115
f 230//115 231//115 232//115
f 231//116 233//116 232//116
f 232//116 233//116 234//116
f 234//117 235//117 236//117
f 233//117 235//117 234//117
f 236//118 237//118 238//118
f 235//118 237//118 236//118
f 238//119 239//119 240//119
f 240//120 239//120 241//120
f 237//119 239//119 238//119
f 239//120 242//120 241//120
f 241//121 243//121 244//121
f 242//121 243//121 241//121
f 244//122 245//122 246//122
f 243//122 245//122 244//122
f 246//123 247//123 248//123
f 245//123 247//123 246//123
f 248//124 249//124 250//124
f 247//124 249//124 248//124
f 250//125 251//125 252//125
f 252//126 251//126 3//126
f 249//125 251//125 250//125
f 251//126 1//126 3//126
f 219//127 217//127 221//127
f 221//127 215//127 223//127
f 223//127 215//127 225//127
f 217//127 215//127 221//127
f 213//127 212//127 215//127
f 227//127 235//127 229//127
f 229//127 235//127 231//127
f 231//127 235//127 233//127
f 209//127 207//127 212//127
f 205//127 203//127 207//127
f 207//127 203//127 212//127
f 235//127 242//127 237//127
f 237//127 242//127 239//127
f 225//127 243//127 227//127
f 227//127 243//127 235//127
f 235//127 243//127 242//127
f 201//127 199//127 203//127
f 215//127 199//127 225//127
f 212//127 199//127 215//127
f 203//127 199//127 212//127
f 243//127 247//127 245//127
f 247//127 251//127 249//127
f 193//127 191//127 195//127
f 195//127 191//127 197//127
f 191//127 189//127 197//127
f 197//127 189//127 199//127
f 251//127 2//127 1//127
f 247//127 2//127 251//127
f 243//127 2//127 247//127
f 189//127 187//127 199//127
f 2//127 9//127 6//127
f 6//127 9//127 8//127
f 181//127 179//127 183//127
f 183//127 179//127 186//127
f 9//127 13//127 12//127
f 179//127 177//127 186//127
f 186//127 177//127 187//127
f 175//127 173//127 177//127
f 15//127 19//127 18//127
f 177//127 171//127 187//127
f 173//127 171//127 177//127
f 187//127 171//127 199//127
f 2//127 21//127 9//127
f 13//127 21//127 15//127
f 9//127 21//127 13//127
f 15//127 21//127 19//127
f 21//127 26//127 23//127
f 167//127 165//127 170//127
f 170//127 165//127 171//127
f 2//127 27//127 21//127
f 21//127 27//127 26//127
f 243//127 27//127 2//127
f 162//127 159//127 163//127
f 163//127 159//127 165//127
f 27//127 34//127 29//127
f 29//127 34//127 31//127
f 159//127 157//127 165//127
f 165//127 156//127 171//127
f 157//127 156//127 165//127
f 34//127 37//127 35//127
f 27//127 37//127 34//127
f 27//127 40//127 37//127
f 27//127 41//127 40//127
f 151//127 149//127 153//127
f 153//127 149//127 156//127
f 27//127 43//127 41//127
f 243//127 45//127 27//127
f 27//127 45//127 43//127
f 148//127 145//127 149//127
f 149//127 144//127 156//127
f 145//127 144//127 149//127
f 144//127 142//127 156//127
f 47//127 51//127 49//127
f 47//127 53//127 51//127
f 138//127 136//127 139//127
f 139//127 136//127 142//127
f 134//127 131//127 136//127
f 45//127 61//127 47//127
f 53//127 61//127 55//127
f 55//127 61//127 57//127
f 57//127 61//127 60//127
f 47//127 61//127 53//127
f 130//127 128//127 131//127
f 45//127 65//127 61//127
f 61//127 65//127 63//127
f 199//127 65//127 225//127
f 243//127 65//127 45//127
f 225//127 65//127 243//127
f 131//127 123//127 136//127
f 128//127 123//127 131//127
f 125//127 123//127 128//127
f 67//127 73//127 69//127
f 69//127 73//127 71//127
f 123//127 118//127 136//127
f 119//127 118//127 121//127
f 121//127 118//127 123//127
f 142//127 118//127 156//127
f 136//127 118//127 142//127
f 67//127 78//127 73//127
f 65//127 78//127 67//127
f 73//127 78//127 75//127
f 199//127 78//127 65//127
f 112//127 109//127 113//127
f 113//127 109//127 115//127
f 115//127 109//127 118//127
f 199//127 85//127 78//127
f 171//127 85//127 199//127
f 78//127 85//127 80//127
f 80//127 85//127 81//127
f 81//127 85//127 83//127
f 156//127 85//127 171//127
f 109//127 105//127 118//127
f 108//127 105//127 109//127
f 156//127 87//127 85//127
f 87//127 91//127 89//127
f 101//127 99//127 104//127
f 104//127 99//127 105//127
f 118//127 97//127 156//127
f 105//127 97//127 118//127
f 99//127 97//127 105//127
f 91//127 96//127 93//127
f 156//127 96//127 87//127
f 87//127 96//127 91//127
f 97//127 96//127 156//127
f 226//128 222//128 224//128
f 218//128 220//128 222//128
f 216//128 222//128 226//128
f 216//128 218//128 222//128
f 232//128 228//128 230//128
f 234//128 228//128 232//128
f 210//128 211//128 214//128
f 210//128 214//128 216//128
f 210//128 216//128 226//128
f 236//128 228//128 234//128
f 208//128 210//128 226//128
f 204//128 206//128 208//128
f 241//128 226//128 228//128
f 241//128 236//128 238//128
f 241//128 238//128 240//128
f 241//128 228//128 236//128
f 200//128 202//128 204//128
f 200//128 204//128 208//128
f 200//128 208//128 226//128
f 200//128 226//128 241//128
f 248//128 244//128 246//128
f 196//128 198//128 200//128
f 250//128 244//128 248//128
f 192//128 194//128 196//128
f 4//128 250//128 252//128
f 4//128 252//128 253//128
f 4//128 244//128 250//128
f 188//128 241//128 244//128
f 188//128 200//128 241//128
f 188//128 196//128 200//128
f 188//128 192//128 196//128
f 188//128 190//128 192//128
f 10//128 4//128 5//128
f 10//128 5//128 7//128
f 180//128 182//128 184//128
f 180//128 184//128 185//128
f 180//128 185//128 188//128
f 14//128 10//128 11//128
f 20//128 14//128 16//128
f 20//128 16//128 17//128
f 172//128 174//128 176//128
f 172//128 176//128 178//128
f 22//128 10//128 14//128
f 22//128 14//128 20//128
f 169//128 172//128 178//128
f 168//128 169//128 178//128
f 168//128 178//128 180//128
f 28//128 10//128 22//128
f 28//128 22//128 24//128
f 28//128 24//128 25//128
f 164//128 166//128 168//128
f 33//128 28//128 30//128
f 33//128 30//128 32//128
f 155//128 158//128 160//128
f 155//128 160//128 161//128
f 38//128 33//128 36//128
f 38//128 28//128 33//128
f 152//128 168//128 180//128
f 152//128 164//128 168//128
f 152//128 155//128 161//128
f 152//128 154//128 155//128
f 152//128 161//128 164//128
f 42//128 38//128 39//128
f 44//128 38//128 42//128
f 46//128 10//128 28//128
f 46//128 28//128 38//128
f 46//128 38//128 44//128
f 50//128 180//128 188//128
f 50//128 46//128 48//128
f 50//128 10//128 46//128
f 50//128 244//128 4//128
f 50//128 188//128 244//128
f 50//128 4//128 10//128
f 135//128 137//128 140//128
f 135//128 140//128 141//128
f 135//128 141//128 143//128
f 135//128 143//128 146//128
f 135//128 146//128 147//128
f 133//128 135//128 147//128
f 62//128 52//128 54//128
f 62//128 54//128 56//128
f 62//128 56//128 58//128
f 62//128 58//128 59//128
f 129//128 132//128 133//128
f 66//128 50//128 52//128
f 66//128 62//128 64//128
f 66//128 52//128 62//128
f 124//128 133//128 147//128
f 124//128 129//128 133//128
f 124//128 126//128 127//128
f 124//128 127//128 129//128
f 74//128 66//128 68//128
f 74//128 68//128 70//128
f 74//128 70//128 72//128
f 117//128 124//128 147//128
f 117//128 152//128 180//128
f 117//128 120//128 122//128
f 117//128 122//128 124//128
f 117//128 147//128 150//128
f 117//128 150//128 152//128
f 76//128 66//128 74//128
f 114//128 117//128 180//128
f 114//128 116//128 117//128
f 110//128 111//128 114//128
f 84//128 79//128 82//128
f 86//128 66//128 76//128
f 86//128 50//128 66//128
f 86//128 76//128 77//128
f 86//128 77//128 79//128
f 86//128 79//128 84//128
f 86//128 180//128 50//128
f 90//128 86//128 88//128
f 102//128 103//128 106//128
f 102//128 106//128 107//128
f 102//128 107//128 110//128
f 100//128 102//128 110//128
f 94//128 90//128 92//128
f 94//128 86//128 90//128
f 95//128 114//128 180//128
f 95//128 180//128 86//128
f 95//128 98//128 100//128
f 95//128 110//128 114//128
f 95//128 100//128 110//128
f 95//128 86//128 94//128
